<?xml version="1.0" encoding="UTF-8"?><svg id="b" xmlns="http://www.w3.org/2000/svg" viewBox="0 0 58.16 49"><g id="c"><g id="d"><path d="M9.32,42.61v1.26h39.52v-1.26H9.32Z" fill="#34b224"/><path d="M49.72,36.48c-2.05-9.7-10.57-16.66-20.56-16.66s-18.49,6.93-20.56,16.66H0v3.26h4.01v9.26h50.61v-9.26h3.54v-3.26h-8.44ZM29.16,23.28c8.05,0,15.01,5.47,16.99,13.16H12.16c1.98-7.69,8.95-13.16,17-13.16ZM52.16,46.54H6.47v-7.55h45.69v7.55Z" fill="#34b224"/><rect x="9.32" y="42.61" width="39.52" height="1.26" fill="#34b224"/><path d="M29.16,0c-5.01,0-9.09,4.08-9.09,9.09s4.08,9.07,9.09,9.07,9.08-4.07,9.08-9.07S34.16,0,29.16,0ZM29.16,15.7c-3.65,0-6.63-2.96-6.63-6.61s2.98-6.63,6.63-6.63,6.61,2.97,6.61,6.63-2.96,6.61-6.61,6.61Z" fill="#34b224"/></g></g></svg>