<?xml version="1.0" encoding="UTF-8"?><svg id="b" xmlns="http://www.w3.org/2000/svg" viewBox="0 0 43.54 44.2"><g id="c"><path d="M42.29,20.01c.68-2.6.53-5.09-.5-7.29s-2.85-3.92-5.29-5.05c-1.05-2.39-2.68-4.26-4.86-5.35-1.54-.76-3.23-1.1-5.01-1.01-1.52-.85-3.16-1.31-4.86-1.31-2.43,0-4.73.95-6.73,2.61-2.69-.08-5.08.65-6.99,2.16-1.89,1.5-3.15,3.64-3.7,6.26-2.13,1.6-3.54,3.64-4.09,5.99-.56,2.36-.21,4.81.99,7.2-.68,2.59-.51,5.07.51,7.26,1.03,2.19,2.86,3.87,5.22,4.96,1.07,2.48,2.74,4.34,4.92,5.44,1.38.68,2.88,1.02,4.46,1.02.18,0,.35,0,.53-.02,1.52.85,3.16,1.32,4.88,1.32,2.45,0,4.76-.96,6.78-2.65.12.01.24.01.36.01,2.48,0,4.76-.69,6.59-2.14,1.92-1.51,3.12-3.69,3.65-6.27,2.11-1.58,3.58-3.6,4.14-5.98.56-2.37.16-4.82-1-7.16ZM39.94,13.58c.55,1.17.79,2.46.7,3.82-.77-1-1.69-1.97-2.73-2.87-.03-1.39-.19-2.71-.46-3.94,1.1.82,1.94,1.82,2.49,2.99ZM36.96,25.66c-.39.5-.82.96-1.27,1.42.08-.54.15-1.1.2-1.66.21-.52.39-1.04.57-1.56.2.6.36,1.2.5,1.8ZM35.78,17.38c0,.06-.01.13-.02.21-.02-.12-.03-.22-.05-.33-.11-.77-.24-1.51-.41-2.25.21.15.41.31.6.47,0,.62-.05,1.26-.12,1.9ZM34.99,9.23c.4,1.1.68,2.34.81,3.66-.42-.3-.86-.59-1.32-.86-.39-1.2-.86-2.33-1.39-3.39.67.15,1.3.35,1.9.59ZM30.73,4.14c1.17.58,2.15,1.45,2.92,2.55-.61-.17-1.24-.28-1.89-.37-.63-.96-1.31-1.82-2.05-2.59.35.12.69.25,1.02.41ZM31.77,10.55c-.68-.33-1.37-.64-2.09-.91-.55-.53-1.11-1.02-1.68-1.49.21-.01.42-.01.62-.01.68,0,1.34.03,1.98.1.43.71.82,1.49,1.17,2.31ZM29.15,6.11c-1.18-.03-2.41.03-3.65.19-1.04-.7-2.1-1.3-3.17-1.8,1.32-.6,2.61-.98,3.85-1.1,1.07.67,2.07,1.59,2.97,2.71ZM21.77,2.04c.33,0,.67.02,1.01.07-.97.35-1.95.81-2.93,1.39-.62-.21-1.22-.38-1.81-.51,1.17-.61,2.43-.95,3.73-.95ZM20.07,5.76c.8.29,1.57.66,2.36,1.08-.72.15-1.45.35-2.16.57h-.02c-.76-.07-1.51-.11-2.24-.12.67-.57,1.36-1.08,2.06-1.53ZM15.7,4.69c.61.06,1.26.16,1.91.3-.94.72-1.86,1.52-2.73,2.4-.52.04-1.03.1-1.53.17.71-1.11,1.49-2.07,2.35-2.87ZM9.32,6.37c1.02-.81,2.22-1.33,3.57-1.56-.8.97-1.52,2.07-2.15,3.29-.58.14-1.12.3-1.66.49-.73.25-1.43.53-2.08.85.53-1.23,1.31-2.27,2.32-3.07ZM12.81,9.73c-.47.58-.92,1.18-1.35,1.81-.07.09-.13.18-.19.27.02-.07.05-.13.07-.2.22-.6.47-1.19.74-1.74.24-.06.48-.1.73-.14ZM6.22,12.21c.97-.64,2.09-1.19,3.37-1.64-.39.99-.73,2.02-1.02,3.1-.87.72-1.68,1.47-2.41,2.26-.13-1.33-.11-2.57.06-3.72ZM2.25,17.49c.28-1.24.9-2.39,1.78-3.4-.01.73.04,1.48.12,2.25.06.55.14,1.11.24,1.66-.33.45-.66.91-.96,1.38-.42.66-.78,1.31-1.1,1.96-.35-1.3-.38-2.6-.08-3.85ZM3.61,30.61c-.55-1.16-.78-2.43-.71-3.77.45.57.94,1.13,1.48,1.68.39.4.81.79,1.24,1.16.01.56.04,1.12.09,1.66.07.78.19,1.54.35,2.24-1.06-.8-1.9-1.8-2.45-2.97ZM5.71,26.94c-.94-.96-1.7-1.94-2.27-2.94.36-1.1.9-2.23,1.62-3.35.29,1.03.68,2.06,1.13,3.08-.23,1.08-.39,2.15-.48,3.21ZM6.6,18.52c.39-.49.81-.96,1.25-1.42-.08.56-.15,1.11-.2,1.68-.2.52-.4,1.04-.56,1.56-.2-.61-.36-1.21-.49-1.82ZM7.75,26.82l.03-.22c.02.12.03.24.05.35.12.76.25,1.49.41,2.22-.2-.15-.4-.31-.59-.46.01-.62.04-1.25.1-1.89ZM8.59,34.99c-.4-1.09-.68-2.31-.83-3.65.42.3.86.59,1.31.85.4,1.2.86,2.33,1.39,3.38-.66-.15-1.29-.35-1.87-.58ZM12.82,40.05c-1.16-.59-2.16-1.45-2.94-2.58.6.16,1.22.28,1.88.37.63.97,1.31,1.84,2.06,2.62-.35-.12-.67-.25-1-.41ZM12.94,35.97c-.43-.72-.82-1.5-1.16-2.32.67.33,1.36.63,2.07.9.56.53,1.15,1.03,1.73,1.5-.91.03-1.79.01-2.64-.08ZM14.36,38.04c.2.03.4.03.6.03,1.01,0,2.04-.07,3.09-.19h.01c1.05.7,2.12,1.3,3.19,1.8-1.34.61-2.66.99-3.91,1.11-1.08-.67-2.08-1.61-2.98-2.75ZM21.08,37.36c.74-.16,1.47-.36,2.21-.58.76.06,1.5.1,2.25.11-.69.58-1.38,1.1-2.11,1.56-.77-.3-1.56-.67-2.35-1.09ZM21.77,42.16c-.35,0-.7-.02-1.04-.08,1-.35,2-.82,3.01-1.41.61.2,1.21.37,1.82.51-1.2.63-2.47.98-3.79.98ZM27.82,39.53c-.62-.06-1.26-.16-1.91-.31.96-.73,1.89-1.54,2.77-2.44.52-.04,1.03-.1,1.53-.19-.71,1.14-1.52,2.12-2.39,2.94ZM26.97,33.18c-1.29.61-2.58,1.11-3.85,1.52-1.36-.13-2.75-.36-4.15-.69-1.39-.33-2.74-.74-4.02-1.23-.96-.94-1.9-1.97-2.77-3.08-.88-1.12-1.69-2.28-2.38-3.45-.18-1.34-.27-2.73-.27-4.15,0-.97.04-1.92.12-2.86.35-.88.74-1.75,1.17-2.6.63-1.27,1.34-2.48,2.09-3.61,1.16-.75,2.38-1.42,3.67-2.02,1.28-.61,2.58-1.12,3.89-1.53,1.36.14,2.73.37,4.11.7,1.4.33,2.73.75,4.01,1.23.97.96,1.9,1.99,2.78,3.09.89,1.12,1.68,2.28,2.38,3.45.17,1.34.26,2.73.26,4.15,0,.97-.04,1.92-.12,2.86-.35.87-.73,1.74-1.16,2.6-.64,1.27-1.34,2.48-2.1,3.61-1.15.74-2.38,1.41-3.66,2.01ZM32.29,32.37c-.03.07-.06.14-.08.21-.24.61-.48,1.2-.76,1.76-.23.05-.47.1-.71.14.46-.58.92-1.2,1.34-1.83.08-.09.14-.18.21-.28ZM34.22,37.82c-1.03.82-2.24,1.34-3.57,1.58.8-.98,1.54-2.1,2.18-3.34,1.35-.34,2.6-.8,3.75-1.36-.54,1.25-1.32,2.3-2.36,3.12ZM37.33,31.99c-.99.66-2.13,1.21-3.39,1.65.4-.99.75-2.03,1.03-3.12.87-.72,1.69-1.48,2.43-2.27.13,1.32.12,2.57-.07,3.74ZM37.34,20.49c.24-1.12.39-2.22.48-3.29.93.96,1.7,1.96,2.28,2.98-.35,1.1-.9,2.24-1.62,3.38-.31-1.02-.69-2.04-1.14-3.07ZM41.3,26.7c-.31,1.27-.93,2.44-1.83,3.45.02-1.26-.09-2.58-.35-3.92.36-.47.69-.93.99-1.41.42-.66.79-1.32,1.12-1.97.33,1.28.36,2.58.07,3.85Z" fill="#34b224"/></g></svg>