<?xml version="1.0" encoding="UTF-8"?><svg id="b" xmlns="http://www.w3.org/2000/svg" viewBox="0 0 48.51 46.89"><g id="c"><path d="M48.41,38.94c-.03-.49-.14-1.02-.32-1.63-1.18-3.74-4.73-6.41-8.61-6.5h-.23l-6.84-6.96,14.28-14.29c.65-.65,1-1.56.95-2.49-.04-.87-.41-1.7-1.04-2.33l-3.5-3.5c-.66-.66-1.57-1.05-2.5-1.05-.88,0-1.7.34-2.31.95l-14.24,14.23-6.74-6.85c.07-1.6-.34-3.24-1.21-4.73-.73-1.24-1.77-2.32-3-3.12l-1.03-.67-3.99,2.32,1.58,1.83c.44.51.8,1,1.08,1.48l.08.13.09.12c.05.07.14.19.27.42.11.19.19.38.25.59v.61l.09.09h0c.02.43-.08.83-.28,1.18-.25.42-.64.74-1.13.91l-.19.07c-.23.07-.48.11-.74.11-.19,0-.39-.02-.6-.06-.81-.17-1.6-.67-2.1-1.34-.21-.29-.37-.59-.46-.83-.04-.13-.09-.3-.1-.43l-.02-.17-.09-.29-.56-2.73L0,7.07l.42,1.62c.06.22.12.45.19.66,1.15,3.74,4.7,6.42,8.67,6.53h.16l7,7.11-13.6,13.59-1.64,6.49c-.23.86-.04,1.77.51,2.49.57.73,1.44,1.17,2.35,1.17.23,0,.46-.03.69-.08l6.5-1.65,13.54-13.53,6.58,6.68c-.07,1.59.34,3.23,1.21,4.72.84,1.42,2.05,2.61,3.52,3.45l1,.57,3.9-2.28-1.74-1.83c-.52-.54-.96-1.13-1.32-1.73l-.06-.11-.07-.09c-.11-.15-.22-.31-.29-.43-.1-.2-.19-.42-.27-.67v-.52l-.09-.1v-.06c-.02-.4.08-.82.27-1.15.2-.33.47-.6.87-.81.1-.06.21-.11.28-.14.3-.1.61-.16.92-.16.19,0,.38.02.61.07.81.16,1.59.65,2.1,1.33.22.31.37.6.46.87.07.2.1.33.12.45l.03.16.05.16c.05.18.1.34.13.51l.57,2.74,4.94-2.91-.1-1.25ZM40.81,4.96l2.07,2.07-9.71,9.71-2.06-2.07,9.7-9.71ZM12.35,13.17c.46-.25.89-.55,1.24-.9.33-.31.61-.65.84-1.03l8.23,8.36-2.01,2-8.3-8.43ZM24.45,25.46l-15.58,15.58-2.76.69.69-2.76,14.2-14.2,1.4-1.39,2-2.01,1.39-1.38,3.73-3.73,2.06,2.07-7.13,7.13ZM35.09,34.41c-.32.3-.61.64-.83,1.02l-8.07-8.19,2.01-2.01,8.14,8.27c-.46.25-.88.55-1.25.91Z" fill="#34b224"/></g></svg>