<?xml version="1.0" encoding="UTF-8"?><svg id="b" xmlns="http://www.w3.org/2000/svg" viewBox="0 0 44.01 43.23"><g id="c"><path d="M13.78,6.55L0,20.33l13.78,13.78c.6.6,1.62.17,1.62-.67v-2.19c0-.25-.1-.49-.28-.67l-10.24-10.24,10.24-10.25c.18-.18.28-.42.28-.67v-2.19c0-.84-1.02-1.27-1.62-.67Z" fill="#34b224"/><path d="M30.36,8.53c-.66-.66-1.78-.19-1.78.74v1.92c0,.28.11.54.31.74l10.25,10.19-10.25,10.25c-.2.2-.31.46-.31.74v1.91c0,.93,1.12,1.4,1.78.74l13.65-13.64-13.65-13.6Z" fill="#34b224"/><path d="M24.91.02h0c-.93-.15-1.8.47-1.96,1.4l-6.69,39.83c-.16.93.47,1.8,1.4,1.96.93.15,1.8-.47,1.96-1.4L26.31,1.98c.16-.93-.47-1.8-1.4-1.96Z" fill="#34b224"/></g></svg>