<?xml version="1.0" encoding="UTF-8"?><svg id="b" xmlns="http://www.w3.org/2000/svg" viewBox="0 0 53.84 48"><g id="c"><path d="M35.65,22.94c-.36,0-.73.02-1.09.05.82.78,1.6,1.61,2.31,2.51,8.09.76,14.49,9.25,14.49,19.54,0,.49-.02.94-.05,1.4-.03.29-.06.58-.09.87.41.02.84.02,1.25.02.43.02.84.02,1.26.02.08-.73.11-1.49.11-2.3,0-12.18-8.17-22.1-18.19-22.1Z" fill="#34b224"/><path d="M30.3,13.7c.17,2.07,1.55,3.95,3.65,4.65.56.18,1.12.28,1.7.28,2.23,0,4.32-1.43,5.08-3.66.45-1.37.34-2.81-.29-4.09-.63-1.27-1.73-2.23-3.09-2.68-2.26-.74-4.69.09-6.03,1.93-.31.43-.56.92-.74,1.45-.2.56-.28,1.13-.28,1.7,0,.13,0,.28.01.41h0ZM32.1,12.09c.66-1.95,2.78-3.01,4.74-2.36.94.31,1.72.98,2.16,1.87.44.9.51,1.92.2,2.84-.32.95-.98,1.72-1.88,2.17-.88.44-1.89.51-2.84.2-1.95-.65-3-2.77-2.37-4.72Z" fill="#34b224"/><path d="M21.04,19.76c-.73,0-1.44.04-2.15.13C8.29,21.2,0,32.1,0,45.31c0,.91.03,1.82.11,2.69l2.84-.03h0s0,0,0,0l-.05-1.05c-.03-.53-.05-1.06-.05-1.61,0-11.72,7.16-21.41,16.32-22.57.61-.08,1.22-.12,1.85-.12,10.02,0,18.17,10.19,18.17,22.69,0,.56-.02,1.1-.05,1.61-.04.34-.07.68-.11,1.01.48,0,.96.01,1.44.02.49,0,.97.01,1.45.02h0s0,0,0,0c.09-.85.14-1.73.14-2.66,0-14.08-9.44-25.55-21.05-25.55Z" fill="#34b224"/><path d="M18.58,15.03c.82.27,1.63.41,2.45.41.4,0,.8-.03,1.2-.09,2.75-.43,5.18-2.36,6.13-5.18.65-1.96.5-4.05-.41-5.89-.93-1.84-2.51-3.22-4.46-3.88-1.01-.34-2.04-.45-3.04-.37-3,.24-5.72,2.22-6.73,5.25-.27.81-.4,1.63-.4,2.43,0,3.22,2.04,6.25,5.26,7.32ZM22.74,2.62c1.37.44,2.48,1.41,3.12,2.69.64,1.29.75,2.75.29,4.11-.46,1.37-1.41,2.48-2.71,3.12-.64.32-1.32.5-2.01.55-.69.05-1.4-.04-2.08-.27-2.81-.94-4.33-4-3.41-6.81.71-2.11,2.6-3.49,4.69-3.65.7-.05,1.41.03,2.11.26Z" fill="#34b224"/></g></svg>