<?xml version="1.0" encoding="UTF-8"?><svg id="b" xmlns="http://www.w3.org/2000/svg" viewBox="0 0 53.56 48"><g id="c"><path d="M45.69,5.44l-.93-.79-.94.79c-.31.27-7.87,6.75-7.87,15.01,0,.91.04,1.81.14,2.69.53,5.48,2.69,9.9,5.6,11.74h.01c.94.59,1.98.91,3.05.91s2.11-.33,3.05-.91c2.93-1.84,5.08-6.26,5.6-11.78.1-.86.14-1.75.14-2.64,0-8.26-7.55-14.74-7.87-15.01ZM48.18,30.46c-1.02,1.57-2.25,2.45-3.41,2.45s-2.4-.89-3.44-2.47c-.76-1.17-1.43-2.74-1.88-4.59,1.21-.8,3.12-1.4,5.33-1.4s4.08.57,5.29,1.36c-.44,1.88-1.12,3.46-1.9,4.65ZM50.66,21.39c-1.68-.74-3.69-1.15-5.88-1.15s-4.23.42-5.92,1.16c-.03-.31-.03-.63-.03-.95,0-5.33,4.05-10.03,5.93-11.93,1.87,1.89,5.92,6.58,5.92,11.93,0,.31,0,.64-.03.94Z" fill="#34b224"/><path d="M5.75,34.61c.94.59,1.98.91,3.05.91s2.11-.33,3.05-.91c2.93-1.84,5.08-6.26,5.6-11.78.1-.86.14-1.75.14-2.64,0-8.26-7.55-14.74-7.87-15.01l-.93-.79-.94.79c-.31.27-7.87,6.75-7.87,15.01,0,.91.04,1.81.14,2.69.53,5.48,2.69,9.9,5.6,11.74h.01ZM2.88,20.19c0-5.33,4.05-10.03,5.93-11.93,1.87,1.89,5.92,6.58,5.92,11.93,0,.31,0,.64-.03.94-1.68-.74-3.69-1.15-5.88-1.15s-4.23.42-5.92,1.16c-.03-.31-.03-.63-.03-.95ZM3.49,25.59c1.21-.8,3.12-1.4,5.33-1.4s4.08.57,5.29,1.36c-.44,1.88-1.12,3.46-1.9,4.65-1.02,1.57-2.25,2.45-3.41,2.45s-2.4-.89-3.44-2.47c-.76-1.17-1.43-2.74-1.88-4.59Z" fill="#34b224"/><path d="M46.28,43.58h-17V3.91h23.12V0H1.78v3.91h23.41v39.67H7.9c-1.31,0-2.37,1.06-2.37,2.37v2.04h43.12v-2.04c0-1.31-1.06-2.37-2.37-2.37Z" fill="#34b224"/></g></svg>