<?xml version="1.0" encoding="UTF-8"?><svg id="b" xmlns="http://www.w3.org/2000/svg" viewBox="0 0 43.32 41.43"><g id="c"><path id="d" d="M41.69,14.57L27.92.81c-.53-.53-1.22-.81-1.97-.81s-1.45.29-1.98.81l-2.39,2.39-1.33-1.33c-.55-.55-1.27-.85-2.04-.85s-1.5.3-2.04.85L.96,17.11c-1.27,1.27-1.27,3.34,0,4.62l2.99,3c.19.51.49.98.88,1.37l1.53,1.53c.44.44,1,.77,1.59.94.03,0,.06.02.1.03,0,.03,0,.06.03.1.17.6.5,1.15.94,1.59l1.52,1.52c.45.45,1,.78,1.59.94.07.03.14.04.22.06.02.07.03.14.05.2.18.61.51,1.15.95,1.59l1.52,1.53c.45.44,1,.77,1.56.94.04,0,.09.03.13.03,0,.03.02.06.03.1.17.6.5,1.14.94,1.59l1.53,1.52c.44.45,1,.77,1.58.94.35.1.71.16,1.07.16.31,0,.62-.03.92-.11l.23-.05,18.83-18.84c2.17-2.16,2.17-5.68,0-7.85ZM39.73,19.35l-18.06,18.06-1.36-1.35,4.07-4.08.98-.49-3.18-3.18-.49.98-4.05,4.09-1.51-1.51,4.07-4.07.98-.49-3.34-3.33-.48.98-4.05,4.1-1.51-1.52,4.07-4.07.97-.49-3.17-3.18-.5.98-4.05,4.09-1.16-1.16,8.44-8.43,3.84,3.84c.63.63,1.46.98,2.36.98s1.72-.35,2.35-.98l3.93-3.92c.62-.63.97-1.46.97-2.36s-.35-1.72-.97-2.35l-4.76-4.76,1.05-1.04c.22-.22.5-.34.81-.34s.59.12.81.34l12.97,12.96c.48.48.48,1.25,0,1.72ZM5.44,21.19l-1.78-1.78,13.94-13.94c.16-.16.38-.26.62-.26s.44.1.61.26l7.36,7.36-3.61,3.61-6.19-6.19-10.94,10.94Z" fill="#34b224"/></g></svg>