<?xml version="1.0" encoding="UTF-8"?><svg id="b" xmlns="http://www.w3.org/2000/svg" viewBox="0 0 47.64 43.73"><g id="c"><path d="M29.44,1c-4.57-1.32-9.08-1.33-13.39-.02-.53.16-13.06,4.09-15.63,15.58-1.25,5.56.27,11.46,4.27,16.64,3.39,4.39,8.36,7.92,13.28,9.46,4.3,1.34,10.38,1.59,13.52-.27.92-.54,1.59-1.28,1.89-2.22.96-3.05-2.45-5.63-6.07-8.36-.83-.64-1.92-1.46-2.73-2.16,1.27.09,3,.33,4.39.52,5.19.72,11.42,1.6,15.27-.67.81-.48,1.51-1.1,2.08-1.89,3.11-4.31-.09-10.78-1.63-13.9C40.12,4.46,31.19,1.5,29.44,1ZM41.12,15.51c1,2.03,3.67,7.42,1.96,9.78-1.86,2.57-8.89,1.59-13.55.93-5.1-.71-8.79-1.22-9.84,1.51-1,2.6,1.74,4.66,5.21,7.28,1.41,1.07,3.93,2.98,4.52,3.98h0c-1.19.71-5.63,1.29-10.25-.15-7.5-2.34-17.1-11.32-14.84-21.42,1.18-5.3,5.21-8.66,8.45-10.57,2.41-1.42,4.39-2.04,4.44-2.06,3.55-1.07,7.29-1.06,11.13.04.9.26,8.85,2.74,12.77,10.67Z" fill="#34b224"/><path d="M14.47,29.37c-.73.43-.98,1.38-.54,2.11s1.38.98,2.11.54.98-1.38.54-2.11-1.38-.98-2.11-.54Z" fill="#34b224"/><path d="M10.55,21.31c-1.15.68-1.54,2.17-.86,3.33s2.18,1.55,3.33.87,1.55-2.18.86-3.34-2.17-1.54-3.34-.85Z" fill="#34b224"/><circle cx="14.54" cy="13.9" r="3.38" transform="translate(-5.04 9.32) rotate(-30.54)" fill="#34b224"/><path d="M23.01,6.62c-2.11,1.24-2.81,3.96-1.57,6.06s3.96,2.81,6.07,1.56,2.81-3.96,1.56-6.07-3.95-2.8-6.06-1.56Z" fill="#34b224"/></g></svg>