<?xml version="1.0" encoding="UTF-8"?><svg id="b" xmlns="http://www.w3.org/2000/svg" viewBox="0 0 36.87 48"><g id="c"><path id="d" d="M36.61,22.74l-.18-.44-.39-.24c-1.95-1.18-4.65-3.34-6.55-6.94-1.11-2.12-1.76-4.41-1.96-6.83h0c.25-.39.41-.85.41-1.34V2.41c0-1.33-1.09-2.41-2.41-2.41h-14.18c-1.33,0-2.41,1.09-2.41,2.41v4.54c0,.47.13.9.37,1.27-.37,2.48-1.2,4.85-2.43,7.04-1.5,2.68-3.61,5.05-6.12,6.86l-.34.24-.16.38c-.17.42-.34,1.1-.23,1.93.11.65.38,1.26.79,1.76l17.62,21.57,17.6-21.57c.85-1.03,1.06-2.45.56-3.7ZM11.67,2.74h13.53v3.89h-13.53v-3.89ZM33.86,24.66l-13.82,16.94v-9.79c1.78-.58,3.07-2.27,3.07-4.25,0-2.45-1.99-4.46-4.44-4.46s-4.46,2-4.46,4.46c0,1.95,1.26,3.62,3.02,4.22v10.28L3.01,24.66c-.1-.13-.15-.27-.18-.42,0-.04-.01-.08-.01-.13,2.67-2,4.91-4.58,6.53-7.46,1.26-2.26,2.14-4.68,2.62-7.22h12.84c.31,2.45,1.03,4.81,2.19,7.01,2.02,3.85,4.87,6.29,7.07,7.72-.01.18-.08.35-.2.51Z" fill="#34b224"/></g></svg>