<?xml version="1.0" encoding="UTF-8"?><svg id="a" xmlns="http://www.w3.org/2000/svg" viewBox="0 0 1237.75 258.16"><path d="M114.62,31.52h35.05l83.46,130.19.91,1.44V31.52h33.75v131.62l.91-1.44L352.16,31.52h35.05c46.45,22.59,71.52,71.54,62.23,116.81-10.79,52.6-62.47,73.78-66.34,75.3-21.88.5-43.75,1-65.63,1.5,61.86-20.18,97.74-68.84,91.72-110.33-1.07-7.31-5.41-28.03-29.64-48.47-36.97,52.56-73.91,105.11-110.85,157.69-.11.15-.22.3-.33.46h-34.92c-.11-.15-.22-.3-.33-.46-36.94-52.58-73.89-105.14-110.86-157.69-24.22,20.44-28.57,41.16-29.62,48.47-6.04,41.49,29.86,90.15,91.7,110.33-21.88-.5-43.75-1-65.6-1.5-3.89-1.52-55.58-22.7-66.37-75.3-9.26-45.27,15.79-94.22,62.23-116.81Z"/><path d="M560.75,90.73l-35.44,134.78h-36.33l-43.81-192.96h35.44l29.63,130.84,34.06-130.84h35.64l33.08,131.04,30.42-131.04h33.37l-44.99,192.96h-36.23l-34.85-134.78Z"/><path d="M772.81,231.32c-26.71,0-47.68-8.86-62.91-26.58-16.08-18.7-24.12-43.94-24.12-75.71,0-15.82,2.05-30.06,6.15-42.73,4.1-12.67,10.09-23.63,17.97-32.88,3.74-4.13,7.92-7.84,12.55-11.12s9.6-6.07,14.91-8.37c5.32-2.3,10.94-4.05,16.88-5.27,5.94-1.21,12.13-1.82,18.56-1.82,13,0,24.83,2.31,35.49,6.94,10.67,4.63,19.8,11.21,27.42,19.74,7.74,9.39,13.72,20.45,17.92,33.18,4.2,12.73,6.3,26.84,6.3,42.33s-2.05,29.96-6.15,42.63c-4.1,12.67-10.12,23.69-18.06,33.08-7.61,8.47-16.74,15.01-27.37,19.64s-22.48,6.94-35.54,6.94ZM772.81,210.15c14.31,0,26.22-7.32,35.74-21.95,9.19-14.24,13.78-33.97,13.78-59.17s-4.6-44.83-13.78-59.07c-9.52-14.7-21.43-22.05-35.74-22.05s-26.12,7.35-35.64,22.05c-9.19,14.24-13.78,33.93-13.78,59.07s4.59,44.93,13.78,59.17c9.52,14.64,21.39,21.95,35.64,21.95Z"/><path d="M914.28,225.51h-36.62V32.55h64.98c8.01,0,15.01.54,21.02,1.62s10.88,2.68,14.62,4.77c4.4,2.56,8.3,5.43,11.72,8.61,3.41,3.18,6.07,6.48,7.97,9.89,2.3,4.53,4.05,8.96,5.27,13.29,1.21,4.33,1.82,8.66,1.82,13,0,6.96-1.64,13.96-4.92,21.02-3.28,7.06-7.71,13.64-13.29,19.74-2.23,2.17-5.37,4.46-9.4,6.89-4.04,2.43-8.88,4.82-14.52,7.19,2.43,1.38,4.36,2.56,5.81,3.54,1.44.98,2.49,1.77,3.15,2.36,3.41,3.41,6.2,6.79,8.37,10.14,1.51,2.3,2.92,4.51,4.23,6.64,1.31,2.13,2.53,4.22,3.64,6.25l31.31,57.99h-39.38l-26.78-50.7c-3.41-6.56-7.09-12.45-11.03-17.67-3.94-5.22-8.07-9.8-12.41-13.73h-15.55v82.11ZM914.28,122.33h18.41c8.2,0,14.93-1.54,20.18-4.63,3.41-1.97,6.86-6.4,10.34-13.29,2.76-5.19,4.14-11.52,4.14-19,0-6.37-1.02-11.83-3.05-16.39-2.03-4.56-5.02-8.12-8.96-10.68-4.47-3.08-11.42-4.63-20.87-4.63h-20.18v68.62Z"/><path d="M1066.97,225.51h-36.62V32.55h36.62v79.64l69.7-79.64h38.39l-79.74,90.57,91.95,102.39h-41.25l-79.05-88.51v88.51Z"/></svg>