<?xml version="1.0" encoding="UTF-8"?><svg id="a" xmlns="http://www.w3.org/2000/svg" viewBox="0 0 234.51 265.37"><circle cx="117.26" cy="132.69" r="109.77" fill="#fff"/><path d="M60.63,92.47h14.56l34.67,54.09.38.6v-54.68h14.02v54.68l.38-.6,34.67-54.09h14.56c19.3,9.39,29.71,29.72,25.86,48.53-4.48,21.85-25.95,30.65-27.56,31.28-9.09.21-18.18.42-27.26.62,25.7-8.38,40.61-28.6,38.11-45.84-.44-3.04-2.25-11.64-12.31-20.14-15.36,21.83-30.71,43.67-46.05,65.51-.05.06-.09.13-.14.19h-14.51c-.05-.06-.09-.13-.14-.19-15.35-21.84-30.7-43.68-46.06-65.51-10.06,8.49-11.87,17.1-12.3,20.14-2.51,17.24,12.4,37.45,38.1,45.84-9.09-.21-18.18-.42-27.26-.62-1.62-.63-23.09-9.43-27.57-31.28-3.85-18.81,6.56-39.14,25.86-48.53Z"/></svg>