<?xml version="1.0" encoding="UTF-8"?><svg id="b" xmlns="http://www.w3.org/2000/svg" xmlns:xlink="http://www.w3.org/1999/xlink" viewBox="0 0 511 530"><defs><clipPath id="d"><rect width="511" height="530" rx="32.47" ry="32.47"/></clipPath></defs><g id="c"><rect width="511" height="530" rx="32.47" ry="32.47"/><g clip-path="url(#d)"><line x1="-334.94" y1="253.44" x2="243.94" y2="-325.44" stroke="#d3d3d3" stroke-miterlimit="10" stroke-width="2.22"/><line x1="-355.01" y1="233.37" x2="223.87" y2="-345.51" stroke="#d3d3d3" stroke-miterlimit="10" stroke-width="2.22"/><line x1="-294.81" y1="293.57" x2="284.07" y2="-285.31" stroke="#d3d3d3" stroke-miterlimit="10" stroke-width="2.22"/><line x1="-314.88" y1="273.51" x2="264.01" y2="-305.38" stroke="#d3d3d3" stroke-miterlimit="10" stroke-width="2.22"/><line x1="-254.68" y1="333.71" x2="324.21" y2="-245.18" stroke="#d3d3d3" stroke-miterlimit="10" stroke-width="2.22"/><line x1="-274.74" y1="313.64" x2="304.14" y2="-265.24" stroke="#d3d3d3" stroke-miterlimit="10" stroke-width="2.22"/><line x1="-214.54" y1="373.84" x2="364.34" y2="-205.04" stroke="#d3d3d3" stroke-miterlimit="10" stroke-width="2.22"/><line x1="-234.61" y1="353.77" x2="344.27" y2="-225.11" stroke="#d3d3d3" stroke-miterlimit="10" stroke-width="2.22"/><line x1="-174.41" y1="413.97" x2="404.47" y2="-164.91" stroke="#d3d3d3" stroke-miterlimit="10" stroke-width="2.22"/><line x1="-154.34" y1="434.04" x2="424.54" y2="-144.84" stroke="#d3d3d3" stroke-miterlimit="10" stroke-width="2.22"/><line x1="-134.28" y1="454.11" x2="444.61" y2="-124.78" stroke="#d3d3d3" stroke-miterlimit="10" stroke-width="2.22"/><line x1="-114.21" y1="474.17" x2="464.67" y2="-104.71" stroke="#d3d3d3" stroke-miterlimit="10" stroke-width="2.22"/><line x1="-94.14" y1="494.24" x2="484.74" y2="-84.64" stroke="#d3d3d3" stroke-miterlimit="10" stroke-width="2.22"/><line x1="-74.07" y1="514.31" x2="504.81" y2="-64.57" stroke="#d3d3d3" stroke-miterlimit="10" stroke-width="2.22"/><line x1="-54.01" y1="534.37" x2="524.87" y2="-44.51" stroke="#d3d3d3" stroke-miterlimit="10" stroke-width="2.22"/><line x1="-33.94" y1="554.44" x2="544.94" y2="-24.44" stroke="#d3d3d3" stroke-miterlimit="10" stroke-width="2.22"/><line x1="-13.87" y1="574.51" x2="565.01" y2="-4.37" stroke="#d3d3d3" stroke-miterlimit="10" stroke-width="2.22"/><line x1="6.19" y1="594.57" x2="585.07" y2="15.69" stroke="#d3d3d3" stroke-miterlimit="10" stroke-width="2.22"/><line x1="26.26" y1="614.64" x2="605.14" y2="35.76" stroke="#d3d3d3" stroke-miterlimit="10" stroke-width="2.22"/><line x1="46.33" y1="634.71" x2="625.21" y2="55.83" stroke="#d3d3d3" stroke-miterlimit="10" stroke-width="2.22"/><line x1="66.39" y1="654.78" x2="645.28" y2="75.89" stroke="#d3d3d3" stroke-miterlimit="10" stroke-width="2.22"/><line x1="86.46" y1="674.84" x2="665.34" y2="95.96" stroke="#d3d3d3" stroke-miterlimit="10" stroke-width="2.22"/><line x1="106.53" y1="694.91" x2="685.41" y2="116.03" stroke="#d3d3d3" stroke-miterlimit="10" stroke-width="2.22"/><line x1="126.59" y1="714.98" x2="705.48" y2="136.09" stroke="#d3d3d3" stroke-miterlimit="10" stroke-width="2.22"/><line x1="146.66" y1="735.04" x2="725.54" y2="156.16" stroke="#d3d3d3" stroke-miterlimit="10" stroke-width="2.22"/><line x1="166.73" y1="755.11" x2="745.61" y2="176.23" stroke="#d3d3d3" stroke-miterlimit="10" stroke-width="2.22"/><line x1="186.79" y1="775.18" x2="765.68" y2="196.29" stroke="#d3d3d3" stroke-miterlimit="10" stroke-width="2.22"/><line x1="206.86" y1="795.24" x2="785.74" y2="216.36" stroke="#d3d3d3" stroke-miterlimit="10" stroke-width="2.22"/><line x1="226.93" y1="815.31" x2="805.81" y2="236.43" stroke="#d3d3d3" stroke-miterlimit="10" stroke-width="2.22"/><line x1="246.99" y1="835.38" x2="825.88" y2="256.49" stroke="#d3d3d3" stroke-miterlimit="10" stroke-width="2.22"/><line x1="267.06" y1="855.44" x2="845.94" y2="276.56" stroke="#d3d3d3" stroke-miterlimit="10" stroke-width="2.22"/><line x1="287.13" y1="875.51" x2="866.01" y2="296.63" stroke="#d3d3d3" stroke-miterlimit="10" stroke-width="2.22"/><line x1="-194.48" y1="393.91" x2="384.41" y2="-184.98" stroke="#d3d3d3" stroke-miterlimit="10" stroke-width="2.22"/></g></g></svg>